<svg id="Слой_1" data-name="Слой 1" xmlns="http://www.w3.org/2000/svg" viewBox="0 0 64 64"><defs><style>.cls-1{fill:none;stroke-linecap:round;stroke-width:6px;}.cls-1,.cls-2{stroke:#e7e7e7;stroke-miterlimit:10;}.cls-2{fill:#e7e7e7;}</style></defs><rect class="cls-1" x="11" y="11" width="42" height="42" rx="5.21"/><path class="cls-2" d="M31.63,35.84a1.81,1.81,0,0,1-1.57-2.75l0,0A9,9,0,0,1,32,30.94a11.77,11.77,0,0,0,1.9-1.9,3.47,3.47,0,0,0,.87-2.18A2.13,2.13,0,0,0,34,25.08a3.52,3.52,0,0,0-2.21-.62,3.74,3.74,0,0,0-3,1.38,2.21,2.21,0,0,1-2.8.45h0a2.25,2.25,0,0,1-.61-3.41,7.66,7.66,0,0,1,1.78-1.51A9,9,0,0,1,31.91,20a8.09,8.09,0,0,1,5.19,1.74,5.72,5.72,0,0,1,2.2,4.77,5.73,5.73,0,0,1-.58,2.57,7.74,7.74,0,0,1-1.39,2c-.53.56-1.07,1.09-1.61,1.58a10.93,10.93,0,0,0-1.39,1.54,5.7,5.7,0,0,0-.31.5,1.86,1.86,0,0,1-1.66,1.08Zm1.77,7.41a2.72,2.72,0,0,1-1.85.77,2.67,2.67,0,0,1-2.05-.82,2.73,2.73,0,0,1-.83-2.05,2.8,2.8,0,0,1,.78-1.86,2.72,2.72,0,0,1,2.1-.87,2.79,2.79,0,0,1,1.87.78,2.73,2.73,0,0,1,.86,2A2.68,2.68,0,0,1,33.4,43.25Z"/></svg>